<mxfile host="app.diagrams.net" modified="2023-10-16T02:22:48.927Z" agent="Mozilla/5.0 (Windows NT 10.0; Win64; x64; rv:109.0) Gecko/20100101 Firefox/118.0" etag="-WZK4fncWWL4eEmVo-VI" version="22.0.4" type="github">
  <diagram id="C5RBs43oDa-KdzZeNtuy" name="Page-1">
    <mxGraphModel dx="880" dy="470" grid="1" gridSize="10" guides="1" tooltips="1" connect="1" arrows="1" fold="1" page="1" pageScale="1" pageWidth="827" pageHeight="1169" math="0" shadow="0">
      <root>
        <mxCell id="WIyWlLk6GJQsqaUBKTNV-0" />
        <mxCell id="WIyWlLk6GJQsqaUBKTNV-1" parent="WIyWlLk6GJQsqaUBKTNV-0" />
        <mxCell id="iftW5xD9gKxno28-fR_K-1" value="Start" style="rounded=1;whiteSpace=wrap;html=1;arcSize=50;" vertex="1" parent="WIyWlLk6GJQsqaUBKTNV-1">
          <mxGeometry x="370" y="20" width="120" height="60" as="geometry" />
        </mxCell>
        <mxCell id="iftW5xD9gKxno28-fR_K-2" value="" style="endArrow=classic;html=1;rounded=0;" edge="1" parent="WIyWlLk6GJQsqaUBKTNV-1">
          <mxGeometry width="50" height="50" relative="1" as="geometry">
            <mxPoint x="429.5" y="80" as="sourcePoint" />
            <mxPoint x="429.5" y="120" as="targetPoint" />
          </mxGeometry>
        </mxCell>
        <mxCell id="iftW5xD9gKxno28-fR_K-5" style="edgeStyle=orthogonalEdgeStyle;rounded=0;orthogonalLoop=1;jettySize=auto;html=1;entryX=0.5;entryY=0;entryDx=0;entryDy=0;" edge="1" parent="WIyWlLk6GJQsqaUBKTNV-1" source="iftW5xD9gKxno28-fR_K-3" target="iftW5xD9gKxno28-fR_K-4">
          <mxGeometry relative="1" as="geometry" />
        </mxCell>
        <mxCell id="iftW5xD9gKxno28-fR_K-3" value="phi=3.14" style="shape=hexagon;perimeter=hexagonPerimeter2;whiteSpace=wrap;html=1;fixedSize=1;size=30;" vertex="1" parent="WIyWlLk6GJQsqaUBKTNV-1">
          <mxGeometry x="370" y="120" width="120" height="40" as="geometry" />
        </mxCell>
        <mxCell id="iftW5xD9gKxno28-fR_K-8" style="edgeStyle=orthogonalEdgeStyle;rounded=0;orthogonalLoop=1;jettySize=auto;html=1;entryX=0.5;entryY=0;entryDx=0;entryDy=0;" edge="1" parent="WIyWlLk6GJQsqaUBKTNV-1" source="iftW5xD9gKxno28-fR_K-4">
          <mxGeometry relative="1" as="geometry">
            <mxPoint x="430" y="290" as="targetPoint" />
          </mxGeometry>
        </mxCell>
        <mxCell id="iftW5xD9gKxno28-fR_K-4" value="&lt;div&gt;input&lt;/div&gt;&lt;div&gt;(Diameter)&lt;br&gt;&lt;/div&gt;" style="shape=parallelogram;perimeter=parallelogramPerimeter;whiteSpace=wrap;html=1;fixedSize=1;" vertex="1" parent="WIyWlLk6GJQsqaUBKTNV-1">
          <mxGeometry x="370" y="200" width="120" height="50" as="geometry" />
        </mxCell>
        <mxCell id="iftW5xD9gKxno28-fR_K-6" style="edgeStyle=orthogonalEdgeStyle;rounded=0;orthogonalLoop=1;jettySize=auto;html=1;exitX=0.5;exitY=1;exitDx=0;exitDy=0;" edge="1" parent="WIyWlLk6GJQsqaUBKTNV-1" source="iftW5xD9gKxno28-fR_K-4" target="iftW5xD9gKxno28-fR_K-4">
          <mxGeometry relative="1" as="geometry" />
        </mxCell>
        <mxCell id="iftW5xD9gKxno28-fR_K-11" style="edgeStyle=orthogonalEdgeStyle;rounded=0;orthogonalLoop=1;jettySize=auto;html=1;entryX=0.5;entryY=0;entryDx=0;entryDy=0;" edge="1" parent="WIyWlLk6GJQsqaUBKTNV-1" source="iftW5xD9gKxno28-fR_K-9" target="iftW5xD9gKxno28-fR_K-10">
          <mxGeometry relative="1" as="geometry" />
        </mxCell>
        <mxCell id="iftW5xD9gKxno28-fR_K-9" value="&lt;div&gt;Radius=diameter/2&lt;/div&gt;&lt;div&gt;luas=phi*radius*radius&lt;br&gt;&lt;/div&gt;" style="rounded=1;whiteSpace=wrap;html=1;" vertex="1" parent="WIyWlLk6GJQsqaUBKTNV-1">
          <mxGeometry x="320" y="290" width="220" height="60" as="geometry" />
        </mxCell>
        <mxCell id="iftW5xD9gKxno28-fR_K-13" style="edgeStyle=orthogonalEdgeStyle;rounded=0;orthogonalLoop=1;jettySize=auto;html=1;entryX=0.5;entryY=0;entryDx=0;entryDy=0;" edge="1" parent="WIyWlLk6GJQsqaUBKTNV-1" source="iftW5xD9gKxno28-fR_K-10" target="iftW5xD9gKxno28-fR_K-12">
          <mxGeometry relative="1" as="geometry" />
        </mxCell>
        <mxCell id="iftW5xD9gKxno28-fR_K-10" value="&lt;div&gt;input&lt;/div&gt;&lt;div&gt;(Diameter)&lt;br&gt;&lt;/div&gt;" style="shape=parallelogram;perimeter=parallelogramPerimeter;whiteSpace=wrap;html=1;fixedSize=1;" vertex="1" parent="WIyWlLk6GJQsqaUBKTNV-1">
          <mxGeometry x="370" y="410" width="120" height="60" as="geometry" />
        </mxCell>
        <mxCell id="iftW5xD9gKxno28-fR_K-12" value="Stop" style="rounded=1;whiteSpace=wrap;html=1;arcSize=50;" vertex="1" parent="WIyWlLk6GJQsqaUBKTNV-1">
          <mxGeometry x="370" y="510" width="120" height="60" as="geometry" />
        </mxCell>
      </root>
    </mxGraphModel>
  </diagram>
</mxfile>
